<?xml version="1.0" encoding="UTF-8" standalone="no"?>
<!-- Created with Inkscape (http://www.inkscape.org/) -->

<svg
   width="100mm"
   height="100mm"
   viewBox="0 0 100 100"
   version="1.1"
   id="svg5"
   xml:space="preserve"
   inkscape:version="1.2.1 (9c6d41e410, 2022-07-14, custom)"
   sodipodi:docname="logo.svg"
   inkscape:export-filename="logo_export.svg"
   inkscape:export-xdpi="96"
   inkscape:export-ydpi="96"
   xmlns:inkscape="http://www.inkscape.org/namespaces/inkscape"
   xmlns:sodipodi="http://sodipodi.sourceforge.net/DTD/sodipodi-0.dtd"
   xmlns="http://www.w3.org/2000/svg"
   xmlns:svg="http://www.w3.org/2000/svg"><sodipodi:namedview
     id="namedview7"
     pagecolor="#ffffff"
     bordercolor="#000000"
     borderopacity="0.25"
     inkscape:showpageshadow="2"
     inkscape:pageopacity="0.0"
     inkscape:pagecheckerboard="0"
     inkscape:deskcolor="#d1d1d1"
     inkscape:document-units="mm"
     showgrid="false"
     inkscape:zoom="2"
     inkscape:cx="148"
     inkscape:cy="199.5"
     inkscape:window-width="1920"
     inkscape:window-height="1007"
     inkscape:window-x="0"
     inkscape:window-y="0"
     inkscape:window-maximized="1"
     inkscape:current-layer="layer1" /><defs
     id="defs2" /><g
     inkscape:label="Layer 1"
     inkscape:groupmode="layer"
     id="layer1"><g
       id="g442"
       transform="matrix(1.2106807,0,0,1.2106807,-15.962238,5.450601)"><path
         style="fill:#000000;stroke-width:0.0675127"
         d="m 80.347224,57.503619 c 0.129954,-0.113146 0.342627,-0.286087 0.472589,-0.384332 8.774807,-6.967294 9.993763,-14.059369 3.931853,-21.363644 -3.007471,-4.776041 -7.863836,-9.765514 -7.96886,-13.991316 l 0.14895,0.709769 c 0.299124,1.425384 1.113662,3.18014 1.973551,4.251628 2.775404,3.840935 6.908288,6.824464 9.418696,10.091757 5.563585,6.978077 2.501705,15.464764 -7.402774,20.518441 -0.853264,0.43537 -0.895609,0.447742 -0.573922,0.167697 z M 58.33993,49.748942 c -0.316952,-0.183924 -0.697798,-0.405154 -0.846324,-0.491635 -0.148535,-0.08648 -0.254868,-0.160082 -0.236288,-0.163544 2.912289,-0.08665 6.243694,-0.202393 9.114208,-0.934456 8.502205,-2.235646 10.416231,-4.499751 7.832772,-11.035849 -3.981063,-8.399723 -7.426331,-16.701168 0.841779,-20.779388 1.496449,-0.786248 3.347846,-1.312926 4.692135,-1.668013 1.481299,-0.389458 7.446781,-1.172887 7.22239,-0.948496 -0.01911,0.01911 -0.650986,0.143246 -1.404412,0.27608 -20.908957,8.177234 -3.560785,17.269726 -0.9561,27.193999 0.564482,2.589065 0.636711,5.688002 -0.81259,8.010678 -2.342404,3.636661 -6.015312,3.470227 -9.80395,4.043811 -5.435318,0.489275 -11.491308,-1.186007 -15.64362,-3.503187 z m 10.597068,-5.245189 c 6.332557,-7.504852 -1.077157,-9.805279 -2.199624,-17.946027 0.295574,-5.897349 0.265308,-8.801853 5.169371,-10.932285 1.750173,-0.74969 4.164906,-1.299047 6.326352,-1.439255 0.810425,-0.05259 0.807872,-0.01246 -0.01385,0.218067 -6.9468,1.949781 -8.595773,3.566037 -9.244231,8.826832 -0.293037,2.37735 0.06352,4.449853 1.51892,8.828913 1.775901,4.787491 3.721448,8.829474 -0.418708,11.848229 -0.90954,0.633485 -1.572856,0.980556 -1.138146,0.595518 z"
         id="path437"
         sodipodi:nodetypes="ccccsccscccscccccsccccccccscscccc" /><text
         xml:space="preserve"
         style="font-size:8.7919px;letter-spacing:1.46532px;fill:#000000;stroke-width:0.732658"
         x="16.652212"
         y="40.464413"
         id="text113"><tspan
           sodipodi:role="line"
           id="tspan111"
           style="font-style:normal;font-variant:normal;font-weight:normal;font-stretch:normal;font-family:'Source Code Pro';-inkscape-font-specification:'Source Code Pro';stroke-width:0.732658"
           x="16.652212"
           y="40.464413">WATERNET</tspan></text></g></g></svg>
